<svg xmlns="http://www.w3.org/2000/svg" viewBox="0 0 117.45 75.29"><g id="Layer_2" data-name="Layer 2"><g id="Device"><circle cx="58.72" cy="15.33" r="15.33" transform="translate(6.36 46.01) rotate(-45)" fill="#455a64"/><path d="M54.47,7.66a1.48,1.48,0,1,0,1.47,1.48A1.47,1.47,0,0,0,54.47,7.66Z" fill="#fff"/><path d="M58.72,7.66A1.48,1.48,0,1,0,60.2,9.14,1.47,1.47,0,0,0,58.72,7.66Z" fill="#fff"/><path d="M63,10.61A1.48,1.48,0,1,0,61.5,9.14,1.47,1.47,0,0,0,63,10.61Z" fill="#fff"/><path d="M54.47,11.79a1.48,1.48,0,1,0,1.47,1.47A1.47,1.47,0,0,0,54.47,11.79Z" fill="#fff"/><path d="M58.72,11.79a1.48,1.48,0,1,0,1.48,1.47A1.47,1.47,0,0,0,58.72,11.79Z" fill="#fff"/><path d="M63,11.79a1.48,1.48,0,1,0,1.47,1.47A1.47,1.47,0,0,0,63,11.79Z" fill="#fff"/><path d="M54.47,15.92a1.48,1.48,0,1,0,1.47,1.47A1.47,1.47,0,0,0,54.47,15.92Z" fill="#fff"/><path d="M58.72,15.92a1.48,1.48,0,1,0,1.48,1.47A1.47,1.47,0,0,0,58.72,15.92Z" fill="#fff"/><path d="M63,15.92a1.48,1.48,0,1,0,1.47,1.47A1.47,1.47,0,0,0,63,15.92Z" fill="#fff"/><path d="M58.72,20.05a1.47,1.47,0,1,0,1.48,1.47A1.47,1.47,0,0,0,58.72,20.05Z" fill="#fff"/><circle cx="102.12" cy="59.96" r="15.33" fill="#455a64"/><path d="M105.41,55.58a3.29,3.29,0,1,1-3.29-3.29A3.29,3.29,0,0,1,105.41,55.58Z" fill="#fff"/><path d="M107.81,64.66V66a10.85,10.85,0,0,1-11.38,0V64.66a5.69,5.69,0,0,1,11.38,0Z" fill="#fff"/><circle cx="15.33" cy="15.33" r="15.33" transform="translate(-6.35 15.33) rotate(-45)" fill="#455a64"/><path d="M15.34,23.9a.35.35,0,0,1-.35-.35V19.46a.35.35,0,0,1,.7,0v4.09A.35.35,0,0,1,15.34,23.9Z" fill="#fff"/><path d="M17.56,23.9H13.09a.35.35,0,0,1,0-.7h4.47a.35.35,0,0,1,0,.7Z" fill="#fff"/><path d="M18.2,9.63v5.94a2.87,2.87,0,0,1-5.45,1.27,2.83,2.83,0,0,1-.3-1.27V9.63a2.88,2.88,0,0,1,5.75-.14Z" fill="#fff"/><path d="M15.33,19.81a4.18,4.18,0,0,1-4.18-4.18v-2.5a.35.35,0,1,1,.7,0v2.5a3.46,3.46,0,0,0,1.07,2.52,3.5,3.5,0,0,0,2.57,1,3.58,3.58,0,0,0,3.32-3.6V13.13a.35.35,0,1,1,.69,0v2.38a4.23,4.23,0,0,1-4,4.3Z" fill="#fff"/><circle cx="58.73" cy="59.96" r="15.33" fill="#455a64"/><path d="M67.66,58v3.9A1.08,1.08,0,0,1,66.32,63l-1.74-.45-.89-.23V57.64L66,57.05l.31-.08A1.07,1.07,0,0,1,67.66,58Z" fill="#fff"/><rect x="52.1" y="55.18" width="10.68" height="9.57" rx="1.97" fill="#fff"/><circle cx="15.33" cy="59.96" r="15.33" fill="#455a64"/><path d="M21.17,59H16.26V54.12a.93.93,0,1,0-1.86,0V59H9.48a.93.93,0,1,0,0,1.86H14.4v4.92a.93.93,0,0,0,1.86,0V60.89h4.91a.93.93,0,1,0,0-1.86Z" fill="#fff"/><circle cx="102.12" cy="15.33" r="15.33" transform="translate(19.07 76.7) rotate(-45)" fill="#455a64"/><path d="M109.7,14.67c0-.36-.08-.71-.14-1.07a8.29,8.29,0,0,0-.72-2.12,7.69,7.69,0,0,0-1-1.61c-.2-.24-.41-.46-.62-.69l0,0h0l-.55.54-.31.3a7.46,7.46,0,0,1,0,10.59c.1.1.21.2.31.31s.37.36.55.55h0c.18-.2.35-.38.52-.58a8.44,8.44,0,0,0,.89-1.26,8.72,8.72,0,0,0,.61-1.32,8.36,8.36,0,0,0,.47-2c0-.24,0-.48,0-.72C109.72,15.57,109.71,14.79,109.7,14.67Z" fill="#fff"/><path d="M107.21,14.4a6.16,6.16,0,0,0-1.78-3.54l-.86.87a5,5,0,0,1,0,7.1l.87.88A6.23,6.23,0,0,0,107.21,14.4Z" fill="#fff"/><path d="M103.7,12.6l-.86.87a2.52,2.52,0,0,1,.76,1.82,2.54,2.54,0,0,1-.75,1.81l.86.87A3.77,3.77,0,0,0,103.7,12.6Z" fill="#fff"/><rect x="94.53" y="12.82" width="2.54" height="4.92" fill="#fff"/><polygon points="97.07 12.82 101.75 10.86 101.75 19.72 97.07 17.75 97.07 12.82" fill="#fff"/></g></g></svg>